<svg width="32" height="32" viewBox="0 0 32 32" fill="none" xmlns="http://www.w3.org/2000/svg">
<path d="M31.4027 14.81C30.8151 6.15898 23.3268 -0.374738 14.6784 0.212889C10.3702 0.506513 6.58675 2.51328 3.94626 5.51949L3.93847 5.51421C3.91964 5.53832 3.90344 5.56231 3.88723 5.58642C1.26508 8.61159 -0.210578 12.6309 0.0824194 16.9402C0.109672 17.3515 0.157772 17.7544 0.216924 18.1543C0.216924 18.1736 0.222199 18.1893 0.224711 18.2081C0.265025 18.4714 0.311115 18.7351 0.361853 18.9931C0.409953 19.2316 0.463705 19.4688 0.522982 19.7048C2.33672 26.9345 9.10956 32.0549 16.8092 31.531C25.4576 30.9429 31.994 23.4551 31.4058 14.8047L31.4027 14.81ZM27.9857 15.0433C28.0584 16.1077 27.991 17.1501 27.8005 18.1548C27.8005 18.1495 27.7952 18.1443 27.7952 18.1386C26.6555 15.3578 24.4043 13.3484 22.4268 12.2384C22.8272 7.52626 21.2284 5.53832 19.418 5.21594C17.9963 4.94894 16.6274 5.88482 16.3604 7.30648C16.3508 7.35722 16.3428 7.4082 16.3363 7.45932C16.151 8.89391 17.1639 10.2069 18.5985 10.3922C18.6004 10.3924 18.6023 10.3927 18.6043 10.3929C18.7304 10.4091 18.8539 10.4144 18.9748 10.4118C18.9835 10.5799 18.9881 10.7483 18.9883 10.9168C17.3144 10.5033 15.7508 10.4197 14.3242 10.5489C13.7878 10.5841 13.254 10.6514 12.7256 10.7504C12.9036 9.15953 13.5021 7.3704 14.6602 6.06479C15.78 4.79949 17.4461 4.07686 19.262 4.2621C19.6063 4.29714 19.9742 4.38304 20.3044 4.49343C20.3206 4.49871 20.3368 4.50386 20.3504 4.50649C24.5576 6.22077 27.6555 10.2156 27.9831 15.0435C27.9831 15.0433 27.9857 15.0433 27.9857 15.0433ZM17.0432 17.4399C17.0432 17.4399 17.0432 17.4426 17.0406 17.4452C16.6437 18.0156 16.194 18.5474 15.6973 19.0334C14.9451 18.2389 14.3084 17.3426 13.8056 16.3709C13.7814 16.3197 13.7548 16.2741 13.7302 16.2229V16.2176C13.4356 15.5879 13.2 14.9322 13.0264 14.2589C14.141 13.9957 15.2346 13.8988 16.2803 13.9502L16.4467 13.958H16.4519C17.1076 14.0119 17.79 14.1328 18.4964 14.3263C18.1685 15.429 17.6797 16.4773 17.0458 17.4373C17.0458 17.4374 17.0432 17.4399 17.0432 17.4399ZM11.6806 4.2945L11.6728 4.30492C9.83245 6.68017 9.2197 9.63249 9.24683 11.8999C4.96428 13.9093 4.04535 16.2872 4.66864 18.0171C4.68434 18.0659 4.70368 18.1113 4.72252 18.1574C5.28164 19.493 6.81708 20.123 8.15321 19.565C9.48884 19.0059 10.1188 17.4704 9.5608 16.1343C9.51207 16.0204 9.45556 15.9099 9.39176 15.8036C9.52626 15.7147 9.67119 15.6268 9.82717 15.5351C10.3049 17.1929 11.0118 18.5927 11.8366 19.7638C12.1349 20.207 12.4572 20.634 12.8089 21.0453C11.3421 21.6874 9.49386 22.0636 7.78222 21.7141C6.1276 21.376 4.66864 20.2959 3.91926 18.6297C3.77571 18.303 3.66758 17.9617 3.59688 17.612C3.55267 17.3116 3.51951 17.0095 3.49741 16.7067C3.11537 11.0837 6.60308 6.07835 11.6806 4.2945ZM16.5754 28.1167C13.2363 28.3449 10.1144 27.2062 7.75535 25.18C10.7323 25.5861 13.5963 24.64 15.5471 23.4825C19.4289 26.1879 21.9489 25.7954 23.1364 24.3903C24.0792 23.2914 23.9524 21.6363 22.8535 20.6935C22.8145 20.66 22.7744 20.6276 22.7335 20.5965C21.582 19.7186 19.9369 19.9405 19.0591 21.092C19.0588 21.0925 19.0583 21.0932 19.0579 21.0937C18.983 21.1931 18.9156 21.3009 18.8565 21.4081C18.7142 21.3354 18.5635 21.2548 18.4106 21.1664C19.5044 20.038 20.4007 18.7337 21.0622 17.3082C21.299 16.8257 21.5071 16.3296 21.6854 15.8226C22.9754 16.7739 24.2271 18.1842 24.7807 19.8414C25.3154 21.4427 25.1109 23.248 24.0419 24.7289C23.8306 25.0163 23.5892 25.2801 23.3219 25.516L23.3114 25.5264C21.3795 27.0482 19.0326 27.9501 16.5788 28.114C16.5785 28.114 16.5754 28.1167 16.5754 28.1167Z" fill="url(#paint0_linear_411_3)"/>
<path opacity="0.9" d="M19.4179 5.21343C19.1234 5.15754 18.8213 5.15402 18.5257 5.203C20.0281 6.01933 21.1212 8.29511 20.5466 12.787C20.3564 14.2479 19.9271 15.6675 19.2761 16.9891C18.7149 18.195 17.9848 19.3148 17.1075 20.3145C17.5234 20.6273 17.9587 20.9136 18.4105 21.1716C19.5044 20.0434 20.401 18.7394 21.0626 17.314C21.7151 15.993 22.1445 14.5731 22.3331 13.1119C23.0186 7.7655 21.3368 5.55716 19.4184 5.21556V5.21343H19.4179Z" fill="url(#paint1_radial_411_3)"/>
<path opacity="0.8" d="M20.5461 12.7843C21.1212 8.29448 20.0276 6.01656 18.5257 5.19974C18.4665 5.20752 18.4105 5.22121 18.3508 5.23478C19.8207 6.08099 20.8788 8.35363 20.3121 12.7843C20.1219 14.2451 19.6926 15.6647 19.0416 16.9863C18.5008 18.1496 17.8019 19.2326 16.9646 20.2045C17.0127 20.2422 17.0588 20.2772 17.1069 20.3117C17.9834 19.3113 18.7133 18.1914 19.2749 16.9857C19.9277 15.6647 20.3572 14.245 20.546 12.7836V12.7843H20.5461Z" fill="white"/>
<path opacity="0.5" d="M14.837 22.9691C14.6947 22.8618 14.5602 22.7488 14.4235 22.6358C12.2069 23.5605 9.13578 24.1402 6.08386 23.4311C6.58081 24.0677 7.13968 24.6535 7.75205 25.1799C10.729 25.5859 13.593 24.6399 15.5438 23.4823C15.304 23.3148 15.0674 23.1429 14.8342 22.9664L14.837 22.9691Z" fill="url(#paint2_radial_411_3)"/>
<path opacity="0.6" d="M14.4257 22.6358C14.3587 22.5792 14.289 22.5232 14.2247 22.4667C11.9919 23.3584 8.90496 23.8931 5.86108 23.1328C5.93644 23.2323 6.01179 23.3343 6.08664 23.4311C9.13642 24.1402 12.2097 23.5603 14.4263 22.6358H14.4257Z" fill="url(#paint3_linear_411_3)"/>
<path opacity="0.9" d="M4.67121 18.0203C4.68691 18.0684 4.70625 18.1145 4.72509 18.1599C4.82455 18.3964 4.95328 18.6084 5.10913 18.7994C5.06618 17.0909 6.4901 15.003 10.6649 13.2567C12.025 12.6909 13.4692 12.3534 14.9392 12.2573C16.2645 12.1391 17.5999 12.2116 18.9046 12.4723C18.9722 11.9081 18.9988 11.3818 18.9935 10.9165C17.4696 10.5328 15.892 10.4085 14.3268 10.5487C12.8567 10.645 11.4124 10.9826 10.052 11.5481C5.07975 13.6276 4.00748 16.1881 4.67159 18.0228V18.0201H4.67121V18.0203Z" fill="url(#paint4_radial_411_3)"/>
<path opacity="0.8" d="M10.6649 13.2595C6.49008 15.0062 5.06566 17.0936 5.10911 18.8022C5.14679 18.8478 5.18711 18.8911 5.22742 18.9341C5.22428 17.2386 6.6644 15.1863 10.7832 13.4611C12.1433 12.8954 13.5874 12.5577 15.0574 12.4616C16.3353 12.3486 17.6226 12.412 18.8832 12.65C18.8916 12.591 18.8988 12.532 18.9047 12.4725C17.5997 12.2132 16.2646 12.141 14.9393 12.258C13.4694 12.3544 12.0252 12.6921 10.665 13.2575C10.6649 13.2573 10.6649 13.2595 10.6649 13.2595Z" fill="white"/>
<path opacity="0.4" d="M22.3383 13.1093C22.3173 13.2867 22.2876 13.4583 22.2577 13.6331C24.1651 15.0894 26.2043 17.4615 27.1179 20.4568C27.42 19.7073 27.6476 18.93 27.7978 18.1361C26.6612 15.3553 24.41 13.348 22.4325 12.2386C22.4084 12.5211 22.3786 12.8085 22.341 13.1093H22.3383Z" fill="url(#paint5_radial_411_3)"/>
<path opacity="0.5" d="M22.2578 13.6331C22.2416 13.7189 22.2279 13.8079 22.2117 13.8937C24.1008 15.3819 26.1075 17.7869 26.97 20.8037C27.0207 20.6885 27.0694 20.5723 27.1149 20.4573C26.2017 17.4615 24.1651 15.0921 22.2546 13.6331H22.2578Z" fill="url(#paint6_linear_411_3)"/>
<path opacity="0.9" d="M23.1363 24.3877C23.3305 24.159 23.4848 23.8993 23.5932 23.6195C22.1343 24.5112 19.6162 24.3206 16.014 21.577C14.843 20.6826 13.828 19.6004 13.0103 18.3745C12.2452 17.2862 11.6399 16.0939 11.2128 14.834C10.6916 15.0569 10.2216 15.2986 9.81873 15.5351C10.2494 17.0465 10.9304 18.475 11.8334 19.7612C12.6393 20.9647 13.644 22.0531 14.8371 22.9637C19.1249 26.2306 21.8789 25.8784 23.1333 24.3869H23.1365L23.1363 24.3877Z" fill="url(#paint7_radial_411_3)"/>
<path opacity="0.8" d="M16.0165 21.5777C19.6162 24.3203 22.1364 24.5112 23.5947 23.619C23.6162 23.563 23.635 23.5065 23.6512 23.4526C22.1845 24.3044 19.6858 24.081 16.1342 21.3762C14.9632 20.4817 13.9482 19.3996 13.1305 18.1737C12.3937 17.1241 11.8051 15.9777 11.3817 14.7672C11.3251 14.7913 11.2718 14.8128 11.2179 14.8367C11.6448 16.0968 12.25 17.2892 13.0148 18.3778C13.8207 19.5813 14.8254 20.6698 16.0185 21.5803L16.0159 21.5777H16.0165Z" fill="white"/>
<path opacity="0.3" d="M10.0495 11.5431C10.2132 11.4755 10.377 11.4138 10.5434 11.3521C10.8501 8.97166 11.8841 6.01921 14.0233 3.733C13.2227 3.84817 12.4352 4.03655 11.6722 4.30229C9.83133 6.67754 9.21909 9.62986 9.24622 11.8979C9.50104 11.7775 9.76741 11.6587 10.0468 11.5436H10.0495V11.5431Z" fill="url(#paint8_radial_411_3)"/>
<path opacity="0.4" d="M10.5428 11.352C10.6266 11.3228 10.7071 11.2903 10.7904 11.261C11.1342 8.88009 12.2143 5.94121 14.3932 3.68427C14.2698 3.69783 14.1457 3.71416 14.0223 3.73036C11.8836 6.0192 10.8495 8.96901 10.5435 11.3494V11.352H10.5428Z" fill="url(#paint9_linear_411_3)"/>
<path opacity="0.4" d="M14.6785 0.213393C10.3692 0.506389 6.58686 2.51329 3.94587 5.51949L3.88672 5.58643C4.39949 6.09719 6.08137 7.1019 6.76118 7.52098C8.11564 6.06178 9.80518 4.95422 11.6837 4.29438C11.8156 4.12219 11.9547 3.95315 12.1003 3.78939C13.8732 1.78776 16.2939 0.73182 19.104 0.73182C19.4158 0.73182 20.0527 0.78306 20.0657 0.78306C18.3172 0.28008 16.4941 0.0870511 14.679 0.212639L14.6785 0.213393Z" fill="url(#paint10_linear_411_3)"/>
<path opacity="0.4" d="M16.5754 28.1192C13.2362 28.3474 10.1144 27.2087 7.75531 25.1831C7.53378 25.154 7.31337 25.1172 7.09434 25.0727C4.47483 24.5379 2.34712 22.9691 0.944673 20.5378C0.7902 20.2692 0.649542 19.9929 0.522949 19.7099C2.33669 26.9397 9.10953 32.0605 16.8066 31.5362C16.8416 30.744 16.6078 28.9041 16.5726 28.1191C16.5727 28.1192 16.5754 28.1192 16.5754 28.1192Z" fill="url(#paint11_linear_411_3)"/>
<path opacity="0.4" d="M31.4033 14.81C30.9198 14.7613 28.566 14.9471 27.9861 15.0433C28.0584 16.1077 27.9914 17.1501 27.8004 18.1548C27.881 18.3536 27.959 18.5577 28.0286 18.7644C28.8753 21.3008 28.5797 23.9255 27.1772 26.3593C27.022 26.6274 26.8535 26.8877 26.6722 27.139C26.6722 27.139 26.68 27.1332 26.6827 27.1279C29.8721 24.0248 31.7282 19.5973 31.4033 14.8124C31.4033 14.8126 31.4033 14.81 31.4033 14.81Z" fill="url(#paint12_linear_411_3)"/>
<path opacity="0.5" d="M19.2652 4.25947C19.609 4.29451 19.9769 4.38041 20.3075 4.4908C20.3232 4.49608 20.3399 4.50123 20.3531 4.50386C21.7008 5.05394 22.9405 5.83799 24.0152 6.81996C24.0152 6.81996 24.0204 6.8226 24.0229 6.82523C24.5389 6.2371 25.53 5.5897 25.53 5.5897C25.53 5.5897 24.0125 4.03655 21.6885 3.55304C20.0631 3.21445 16.396 2.88955 14.0825 6.82511L14.104 6.80413C14.2762 6.54567 14.4561 6.29337 14.6629 6.06216C15.7832 4.79686 17.4488 4.07372 19.2652 4.25947Z" fill="url(#paint13_linear_411_3)"/>
<path opacity="0.5" d="M24.0416 24.7314C23.8303 25.0188 23.5889 25.2827 23.3216 25.5185C23.3111 25.5289 23.2974 25.54 23.2865 25.5509C22.1363 26.4423 20.8376 27.1235 19.4503 27.563C19.4477 27.563 19.445 27.563 19.4419 27.5656C19.6947 28.3071 19.759 29.4892 19.759 29.4892C19.759 29.4892 21.8626 28.9523 23.443 27.1815C24.5472 25.9429 26.6638 22.9288 24.4122 18.958C24.4122 18.958 24.4153 18.9711 24.4206 18.9873C24.5602 19.2646 24.6865 19.5488 24.7833 19.8418C25.318 21.443 25.1135 23.2484 24.0444 24.7288C24.0442 24.7288 24.0416 24.7314 24.0416 24.7314Z" fill="url(#paint14_linear_411_3)"/>
<path opacity="0.5" d="M3.92485 18.6357C3.78105 18.3088 3.6728 17.9674 3.60197 17.6174C3.59933 17.6017 3.59418 17.585 3.59154 17.5687C3.39274 16.1208 3.45704 14.654 3.76636 13.241V13.2326C2.99764 13.0819 1.94219 12.545 1.94219 12.545C1.94219 12.545 1.35607 14.6382 2.10081 16.8894C2.622 18.466 4.17201 21.8056 8.73613 21.8407C8.73613 21.8407 8.72307 21.8375 8.70687 21.8322C8.39817 21.8134 8.08935 21.7815 7.78593 21.7197C6.13081 21.3811 4.67185 20.3011 3.92196 18.6354C3.92171 18.6357 3.92485 18.6357 3.92485 18.6357Z" fill="url(#paint15_linear_411_3)"/>
<path opacity="0.6" d="M18.6041 10.3908C18.7302 10.4065 18.8538 10.4118 18.9746 10.4091C18.9746 10.4091 18.8914 8.77863 18.6925 7.94033C18.4911 7.10466 18.1954 6.54843 17.8731 6.23446C17.6397 6.00891 16.906 5.72897 16.3367 7.45367C16.1512 8.88814 17.1637 10.2015 18.5983 10.387C18.6003 10.3873 18.6022 10.3875 18.6042 10.3878V10.3904V10.3908H18.6041Z" fill="url(#paint16_linear_411_3)"/>
<path opacity="0.5" d="M9.56446 16.1396C9.51548 16.0258 9.45884 15.9155 9.39492 15.8094C9.39492 15.8094 8.02186 16.6958 7.39857 17.2867C6.77528 17.878 6.44196 18.4129 6.33207 18.8503C6.25408 19.1648 6.37754 19.9388 8.15624 19.5703C9.49187 19.0112 10.1218 17.4757 9.56383 16.1396H9.56446Z" fill="url(#paint17_linear_411_3)"/>
<path opacity="0.6" d="M19.0611 21.091C18.9857 21.1905 18.9188 21.2982 18.8596 21.405C18.8596 21.405 20.3133 22.1496 21.138 22.394C21.9628 22.6389 22.5912 22.6604 23.024 22.5363C23.3358 22.4479 23.9429 21.9507 22.7361 20.597C21.5845 19.7193 19.9395 19.9414 19.0619 21.093C19.0617 21.0934 19.0614 21.0937 19.0612 21.094C19.0611 21.0942 19.0611 21.091 19.0611 21.091Z" fill="url(#paint18_linear_411_3)"/>
<path opacity="0.3" d="M18.4969 14.329C18.1672 15.4252 17.7047 16.4222 17.1379 17.3001C17.108 17.3457 17.0788 17.3917 17.0464 17.4398C17.0464 17.4398 17.0464 17.4424 17.0437 17.4451C16.6469 18.0155 16.1971 18.5472 15.7004 19.0333C16.0605 19.4148 16.4472 19.7853 16.8747 20.1374C17.3602 20.5193 17.8737 20.8641 18.411 21.1689C19.5049 20.0407 20.4015 18.7366 21.063 17.3112C21.2997 16.8286 21.5076 16.3322 21.6857 15.8251C21.1326 15.4196 20.5738 15.0946 20.0583 14.8743C19.5502 14.6565 19.0276 14.4743 18.4943 14.329H18.4974H18.4969Z" fill="url(#paint19_linear_411_3)"/>
<path opacity="0.3" d="M7.75585 25.1831C10.7323 25.5886 13.5963 24.643 15.5471 23.485C15.3073 23.3174 15.0707 23.1455 14.8375 22.9691C14.0955 22.4015 13.4151 21.7579 12.8071 21.0486C11.3399 21.6901 9.4916 22.0663 7.77997 21.7168C6.12534 21.3787 4.66639 20.2987 3.9165 18.6331C3.77295 18.3062 3.66482 17.9648 3.59412 17.6149C4.02689 20.6505 5.55806 23.2994 7.75322 25.1827H7.75585V25.1831Z" fill="url(#paint20_linear_411_3)"/>
<path opacity="0.3" d="M15.6999 19.0329C14.948 18.2385 14.3114 17.3425 13.8088 16.3709C13.7847 16.3197 13.7576 16.2741 13.7335 16.2229V16.2176C13.4389 15.5879 13.2033 14.9322 13.0297 14.2589C12.5189 14.3799 12.0062 14.5306 11.4902 14.7241C10.9174 14.9529 10.3625 15.2241 9.82983 15.5351C10.3081 17.1929 11.0145 18.5927 11.8392 19.7638C12.1375 20.207 12.4604 20.634 12.8125 21.0453C13.4405 20.7712 14.0025 20.4461 14.4505 20.1102C14.8918 19.7788 15.3101 19.4179 15.7027 19.0301C15.7026 19.0303 15.6999 19.0329 15.6999 19.0329Z" fill="url(#paint21_linear_411_3)"/>
<path opacity="0.3" d="M11.6732 4.30493C9.83281 6.68018 9.22007 9.6325 9.24719 11.8999C9.51244 11.7753 9.78019 11.6564 10.0505 11.5429C10.9116 11.1833 11.8084 10.9158 12.726 10.745C12.9039 9.15413 13.5025 7.36501 14.6605 6.05939C15.7804 4.79409 17.4465 4.07096 19.2628 4.2567C19.6067 4.29174 19.9745 4.37764 20.3052 4.48804C20.3209 4.49331 20.3371 4.49846 20.3507 4.5011C18.6267 3.79768 16.7644 3.49903 14.9069 3.62826C13.7788 3.70625 12.6987 3.93444 11.6777 4.29438C11.6751 4.29702 11.6724 4.30217 11.6699 4.3048H11.6726H11.6732V4.30493Z" fill="url(#paint22_linear_411_3)"/>
<path opacity="0.3" d="M27.7978 18.1333C26.6591 15.3525 24.4075 13.3426 22.4299 12.2332C22.4058 12.5157 22.3766 12.8056 22.3358 13.1091C22.2158 14.0346 21.9989 14.945 21.6885 15.825C22.9784 16.7763 24.2301 18.1865 24.7837 19.8443C25.318 21.4456 25.1139 23.2509 24.0449 24.7313C23.8336 25.0187 23.5923 25.2825 23.3249 25.5184L23.3145 25.5288C25.6195 23.7182 27.2496 21.107 27.809 18.152C27.809 18.1467 27.8037 18.141 27.8037 18.1358L27.7985 18.1332L27.7978 18.1333Z" fill="url(#paint23_linear_411_3)"/>
<path opacity="0.3" d="M12.7177 12.6362C12.7834 13.1835 12.8866 13.7257 13.0264 14.2589C14.1415 13.9957 15.2346 13.8989 16.2803 13.9502L16.4467 13.958H16.4519C17.1076 14.0119 17.79 14.1328 18.4969 14.3264C18.6471 13.824 18.7737 13.3023 18.8647 12.7596C18.9642 12.083 18.9935 11.4567 18.9908 10.9114C17.3174 10.4979 15.7538 10.4143 14.3272 10.5435C13.7909 10.5787 13.257 10.646 12.7286 10.745C12.6533 11.4273 12.6501 12.0747 12.7202 12.6341C12.7203 12.6342 12.7177 12.6362 12.7177 12.6362Z" fill="url(#paint24_linear_411_3)"/>
<defs>
<linearGradient id="paint0_linear_411_3" x1="5.03048" y1="26.5874" x2="25.0457" y2="6.56959" gradientUnits="userSpaceOnUse">
<stop stop-color="#E6007A"/>
<stop offset="0.21" stop-color="#703AC2"/>
<stop offset="0.46" stop-color="#0070EB"/>
<stop offset="0.77" stop-color="#0297FB"/>
<stop offset="1" stop-color="#0AE2FF"/>
</linearGradient>
<radialGradient id="paint1_radial_411_3" cx="0" cy="0" r="1" gradientUnits="userSpaceOnUse" gradientTransform="translate(20.2185 12.6954) scale(5.96967)">
<stop stop-color="white"/>
<stop offset="1" stop-color="white" stop-opacity="0"/>
</radialGradient>
<radialGradient id="paint2_radial_411_3" cx="0" cy="0" r="1" gradientUnits="userSpaceOnUse" gradientTransform="translate(11.3961 23.7694) scale(3.47379)">
<stop stop-color="white"/>
<stop offset="1" stop-color="white" stop-opacity="0"/>
</radialGradient>
<linearGradient id="paint3_linear_411_3" x1="6.18341" y1="23.1815" x2="9.5314" y2="23.1355" gradientUnits="userSpaceOnUse">
<stop stop-color="white" stop-opacity="0"/>
<stop offset="1" stop-color="white"/>
</linearGradient>
<radialGradient id="paint4_radial_411_3" cx="0" cy="0" r="1" gradientUnits="userSpaceOnUse" gradientTransform="translate(10.7551 13.5866) rotate(-120) scale(5.96966)">
<stop stop-color="white"/>
<stop offset="1" stop-color="white" stop-opacity="0"/>
</radialGradient>
<radialGradient id="paint5_radial_411_3" cx="0" cy="0" r="1" gradientUnits="userSpaceOnUse" gradientTransform="translate(24.7569 15.691) rotate(-120) scale(3.47378)">
<stop stop-color="white"/>
<stop offset="1" stop-color="white" stop-opacity="0"/>
</radialGradient>
<linearGradient id="paint6_linear_411_3" x1="26.8498" y1="20.498" x2="25.136" y2="17.622" gradientUnits="userSpaceOnUse">
<stop stop-color="white" stop-opacity="0"/>
<stop offset="1" stop-color="white"/>
</linearGradient>
<radialGradient id="paint7_radial_411_3" cx="0" cy="0" r="1" gradientUnits="userSpaceOnUse" gradientTransform="translate(15.9743 21.061) rotate(120) scale(5.96966)">
<stop stop-color="white"/>
<stop offset="1" stop-color="white" stop-opacity="0"/>
</radialGradient>
<radialGradient id="paint8_radial_411_3" cx="0" cy="0" r="1" gradientUnits="userSpaceOnUse" gradientTransform="translate(11.0777 8.16192) rotate(120) scale(3.47378)">
<stop stop-color="white"/>
<stop offset="1" stop-color="white" stop-opacity="0"/>
</radialGradient>
<linearGradient id="paint9_linear_411_3" x1="14.1877" y1="3.93827" x2="12.5556" y2="6.86187" gradientUnits="userSpaceOnUse">
<stop stop-color="white" stop-opacity="0"/>
<stop offset="1" stop-color="white"/>
</linearGradient>
<linearGradient id="paint10_linear_411_3" x1="14.921" y1="2.45487" x2="9.80532" y2="3.9431" gradientUnits="userSpaceOnUse">
<stop stop-color="#231F20"/>
<stop offset="1" stop-color="white"/>
</linearGradient>
<linearGradient id="paint11_linear_411_3" x1="5.25578" y1="21.9599" x2="9.53313" y2="26.4246" gradientUnits="userSpaceOnUse">
<stop stop-color="#231F20"/>
<stop offset="1" stop-color="white"/>
</linearGradient>
<linearGradient id="paint12_linear_411_3" x1="28.2113" y1="21.2871" x2="29.6995" y2="16.7627" gradientUnits="userSpaceOnUse">
<stop stop-color="#231F20"/>
<stop offset="1" stop-color="white"/>
</linearGradient>
<linearGradient id="paint13_linear_411_3" x1="17.2502" y1="5.04294" x2="24.1068" y2="6.61228" gradientUnits="userSpaceOnUse">
<stop stop-color="#231F20"/>
<stop offset="1" stop-color="white"/>
</linearGradient>
<linearGradient id="paint14_linear_411_3" x1="24.3711" y1="22.5936" x2="19.5804" y2="27.748" gradientUnits="userSpaceOnUse">
<stop stop-color="#231F20"/>
<stop offset="1" stop-color="white"/>
</linearGradient>
<linearGradient id="paint15_linear_411_3" x1="5.60916" y1="19.9886" x2="3.54218" y2="13.2649" gradientUnits="userSpaceOnUse">
<stop stop-color="#231F20"/>
<stop offset="1" stop-color="white"/>
</linearGradient>
<linearGradient id="paint16_linear_411_3" x1="18.7482" y1="7.57098" x2="16.5802" y2="9.7421" gradientUnits="userSpaceOnUse">
<stop stop-color="#231F20"/>
<stop offset="1" stop-color="white"/>
</linearGradient>
<linearGradient id="paint17_linear_411_3" x1="7.05126" y1="17.4222" x2="10.0141" y2="18.2181" gradientUnits="userSpaceOnUse">
<stop stop-color="#231F20"/>
<stop offset="1" stop-color="white"/>
</linearGradient>
<linearGradient id="paint18_linear_411_3" x1="21.4283" y1="22.6267" x2="20.6345" y2="19.6649" gradientUnits="userSpaceOnUse">
<stop stop-color="#231F20"/>
<stop offset="1" stop-color="white"/>
</linearGradient>
<linearGradient id="paint19_linear_411_3" x1="16.9154" y1="19.9904" x2="18.2183" y2="18.1934" gradientUnits="userSpaceOnUse">
<stop stop-color="#231F20"/>
<stop offset="1" stop-color="white"/>
</linearGradient>
<linearGradient id="paint20_linear_411_3" x1="12.4356" y1="19.2122" x2="9.83226" y2="20.4534" gradientUnits="userSpaceOnUse">
<stop stop-color="#231F20"/>
<stop offset="1" stop-color="white"/>
</linearGradient>
<linearGradient id="paint21_linear_411_3" x1="11.4931" y1="14.8781" x2="12.299" y2="16.5521" gradientUnits="userSpaceOnUse">
<stop stop-color="#231F20"/>
<stop offset="1" stop-color="white"/>
</linearGradient>
<linearGradient id="paint22_linear_411_3" x1="15.2365" y1="9.71107" x2="14.6802" y2="7.79008" gradientUnits="userSpaceOnUse">
<stop stop-color="#231F20"/>
<stop offset="1" stop-color="white"/>
</linearGradient>
<linearGradient id="paint23_linear_411_3" x1="21.2512" y1="18.508" x2="22.863" y2="18.879" gradientUnits="userSpaceOnUse">
<stop stop-color="#231F20"/>
<stop offset="1" stop-color="white"/>
</linearGradient>
<linearGradient id="paint24_linear_411_3" x1="18.7226" y1="13.0628" x2="16.6781" y2="12.6918" gradientUnits="userSpaceOnUse">
<stop stop-color="#231F20"/>
<stop offset="1" stop-color="white"/>
</linearGradient>
</defs>
</svg>
